<?xml version="1.0" encoding="UTF-8"?>
<svg xmlns="http://www.w3.org/2000/svg" xmlns:xlink="http://www.w3.org/1999/xlink" width="30px" height="30px" viewBox="0 0 30 30" version="1.1">
<g id="surface1">
<path style=" stroke:none;fill-rule:nonzero;fill:rgb(100%,88.235294%,30.196078%);fill-opacity:1;" d="M 15 30 C 6.730469 30 0 23.269531 0 15 C 0 6.730469 6.730469 0 15 0 C 23.269531 0 30 6.730469 30 15 C 30 23.269531 23.269531 30 15 30 Z M 15 30 "/>
<path style=" stroke:none;fill-rule:nonzero;fill:rgb(100%,80%,20%);fill-opacity:1;" d="M 30 15 C 30 6.730469 23.269531 0 15 0 L 15 30 C 23.269531 30 30 23.269531 30 15 Z M 30 15 "/>
<path style=" stroke:none;fill-rule:nonzero;fill:rgb(100%,62.352941%,9.803922%);fill-opacity:1;" d="M 15 26.085938 C 8.886719 26.085938 3.914062 21.113281 3.914062 15 C 3.914062 8.886719 8.886719 3.914062 15 3.914062 C 21.113281 3.914062 26.085938 8.886719 26.085938 15 C 26.085938 21.113281 21.113281 26.085938 15 26.085938 Z M 15 5.871094 C 9.964844 5.871094 5.871094 9.964844 5.871094 15 C 5.871094 20.035156 9.964844 24.128906 15 24.128906 C 20.035156 24.128906 24.128906 20.035156 24.128906 15 C 24.128906 9.964844 20.035156 5.871094 15 5.871094 Z M 15 5.871094 "/>
<path style=" stroke:none;fill-rule:nonzero;fill:rgb(94.901961%,52.54902%,9.411765%);fill-opacity:1;" d="M 24.128906 15 C 24.128906 20.035156 20.035156 24.128906 15 24.128906 L 15 26.085938 C 21.113281 26.085938 26.085938 21.113281 26.085938 15 C 26.085938 8.886719 21.113281 3.914062 15 3.914062 L 15 5.871094 C 20.035156 5.871094 24.128906 9.964844 24.128906 15 Z M 24.128906 15 "/>
<path style=" stroke:none;fill-rule:nonzero;fill:rgb(100%,62.352941%,9.803922%);fill-opacity:1;" d="M 15 14.023438 C 14.738281 14.023438 14.492188 13.917969 14.308594 13.734375 C 14.125 13.550781 14.023438 13.304688 14.023438 13.042969 C 14.023438 12.78125 14.125 12.535156 14.308594 12.351562 C 14.679688 11.984375 15.320312 11.980469 15.691406 12.351562 C 15.875 12.535156 15.976562 12.78125 15.976562 13.042969 C 15.976562 13.582031 16.417969 14.023438 16.957031 14.023438 C 17.496094 14.023438 17.933594 13.582031 17.933594 13.042969 C 17.933594 12.257812 17.628906 11.523438 17.074219 10.96875 C 16.761719 10.65625 16.386719 10.429688 15.976562 10.285156 L 15.976562 9.457031 C 15.976562 8.917969 15.539062 8.476562 15 8.476562 C 14.460938 8.476562 14.023438 8.917969 14.023438 9.457031 L 14.023438 10.285156 C 13.613281 10.429688 13.238281 10.652344 12.925781 10.96875 C 12.371094 11.523438 12.066406 12.257812 12.066406 13.042969 C 12.066406 13.828125 12.371094 14.566406 12.925781 15.117188 C 13.480469 15.671875 14.214844 15.976562 15 15.976562 C 15.261719 15.976562 15.507812 16.082031 15.691406 16.265625 C 15.875 16.449219 15.976562 16.695312 15.976562 16.957031 C 15.976562 17.21875 15.875 17.464844 15.691406 17.648438 C 15.324219 18.015625 14.679688 18.019531 14.308594 17.648438 C 14.125 17.464844 14.023438 17.21875 14.023438 16.957031 C 14.023438 16.417969 13.582031 15.976562 13.042969 15.976562 C 12.503906 15.976562 12.066406 16.417969 12.066406 16.957031 C 12.066406 17.742188 12.371094 18.476562 12.925781 19.03125 C 13.238281 19.34375 13.613281 19.570312 14.023438 19.714844 L 14.023438 20.542969 C 14.023438 21.082031 14.460938 21.523438 15 21.523438 C 15.539062 21.523438 15.976562 21.082031 15.976562 20.542969 L 15.976562 19.714844 C 16.386719 19.570312 16.761719 19.34375 17.074219 19.03125 C 17.628906 18.476562 17.933594 17.742188 17.933594 16.957031 C 17.933594 16.171875 17.628906 15.433594 17.074219 14.882812 C 16.519531 14.328125 15.785156 14.023438 15 14.023438 Z M 15 14.023438 "/>
<path style=" stroke:none;fill-rule:nonzero;fill:rgb(94.901961%,52.54902%,9.411765%);fill-opacity:1;" d="M 15.691406 12.351562 C 15.875 12.535156 15.976562 12.78125 15.976562 13.042969 C 15.976562 13.582031 16.417969 14.023438 16.957031 14.023438 C 17.496094 14.023438 17.933594 13.582031 17.933594 13.042969 C 17.933594 12.257812 17.628906 11.523438 17.074219 10.96875 C 16.761719 10.65625 16.386719 10.429688 15.976562 10.285156 L 15.976562 9.457031 C 15.976562 8.917969 15.539062 8.476562 15 8.476562 L 15 12.074219 C 15.253906 12.074219 15.507812 12.167969 15.691406 12.351562 Z M 15.691406 12.351562 "/>
<path style=" stroke:none;fill-rule:nonzero;fill:rgb(94.901961%,52.54902%,9.411765%);fill-opacity:1;" d="M 15.976562 20.542969 L 15.976562 19.714844 C 16.386719 19.570312 16.761719 19.347656 17.074219 19.03125 C 17.628906 18.476562 17.933594 17.742188 17.933594 16.957031 C 17.933594 16.171875 17.628906 15.433594 17.074219 14.882812 C 16.519531 14.328125 15.785156 14.023438 15 14.023438 L 15 15.976562 C 15.261719 15.976562 15.507812 16.082031 15.691406 16.265625 C 15.875 16.449219 15.976562 16.695312 15.976562 16.957031 C 15.976562 17.21875 15.875 17.464844 15.691406 17.648438 C 15.507812 17.832031 15.253906 17.925781 15 17.925781 L 15 21.523438 C 15.539062 21.523438 15.976562 21.082031 15.976562 20.542969 Z M 15.976562 20.542969 "/>
</g>
</svg>
