<svg xmlns="http://www.w3.org/2000/svg" viewBox="0 0 50 50" width="50px" height="50px"><g xmlns="http://www.w3.org/2000/svg" transform="matrix(0 1 -1 0 50 -0)"><g xmlns="http://www.w3.org/2000/svg" transform="matrix(0 1 -1 0 50 -0)"><g id="surface1"><path style=" stroke:none;fill-rule:nonzero;fill:rgb(0%,51.372549%,24.313725%);fill-opacity:1;" d="M 15.4375 19.1875 C 13.835938 20.789062 11.230469 20.789062 9.628906 19.1875 L 0 9.5625 C 2.851562 6.699219 7.480469 6.699219 10.34375 9.5625 L 17.703125 16.921875 Z M 15.4375 19.1875 " /><path style=" stroke:none;fill-rule:nonzero;fill:rgb(0%,41.176471%,19.215686%);fill-opacity:1;" d="M 1.007812 8.71875 L 10.546875 18.273438 C 11.648438 19.367188 13.417969 19.367188 14.523438 18.273438 L 16.789062 16.007812 L 17.703125 16.921875 L 15.4375 19.1875 C 13.835938 20.789062 11.242188 20.789062 9.628906 19.1875 L 0 9.5625 C 0.3125 9.238281 0.65625 8.964844 1.007812 8.71875 Z M 1.007812 8.71875 " /><path style=" stroke:none;fill-rule:nonzero;fill:rgb(0%,41.176471%,19.215686%);fill-opacity:1;" d="M 11.710938 14.375 C 11.710938 14.863281 11.320312 15.265625 10.828125 15.265625 C 10.332031 15.265625 9.941406 14.863281 9.941406 14.375 C 9.941406 13.886719 10.332031 13.484375 10.828125 13.484375 C 11.320312 13.484375 11.710938 13.886719 11.710938 14.375 Z M 11.710938 14.375 " /><path style=" stroke:none;fill-rule:nonzero;fill:rgb(0%,41.176471%,19.215686%);fill-opacity:1;" d="M 9.601562 10.703125 C 9.601562 11.015625 9.34375 11.269531 9.03125 11.269531 C 8.71875 11.269531 8.46875 11.015625 8.46875 10.703125 C 8.46875 10.382812 8.71875 10.125 9.03125 10.125 C 9.34375 10.125 9.601562 10.382812 9.601562 10.703125 Z M 9.601562 10.703125 " /><path style=" stroke:none;fill-rule:nonzero;fill:rgb(0%,41.176471%,19.215686%);fill-opacity:1;" d="M 5.4375 9.890625 C 5.4375 10.4375 5 10.878906 4.460938 10.878906 C 3.914062 10.878906 3.476562 10.4375 3.476562 9.890625 C 3.476562 9.34375 3.914062 8.90625 4.460938 8.90625 C 5 8.90625 5.4375 9.34375 5.4375 9.890625 Z M 5.4375 9.890625 " /><path style=" stroke:none;fill-rule:nonzero;fill:rgb(0%,51.372549%,24.313725%);fill-opacity:1;" d="M 35.546875 34.21875 C 33.945312 35.820312 33.945312 38.417969 35.546875 40.019531 L 45.1875 49.65625 C 48.039062 46.796875 48.039062 42.167969 45.1875 39.316406 L 37.8125 31.953125 Z M 35.546875 34.21875 " /><path style=" stroke:none;fill-rule:nonzero;fill:rgb(0%,41.176471%,19.215686%);fill-opacity:1;" d="M 46.015625 48.652344 L 36.464844 39.101562 C 35.371094 38.007812 35.371094 36.230469 36.464844 35.136719 L 38.742188 32.871094 L 37.8125 31.953125 L 35.546875 34.21875 C 33.945312 35.820312 33.945312 38.417969 35.546875 40.019531 L 45.1875 49.65625 C 45.5 49.335938 45.773438 49.003906 46.015625 48.652344 Z M 46.015625 48.652344 " /><path style=" stroke:none;fill-rule:nonzero;fill:rgb(0%,41.176471%,19.215686%);fill-opacity:1;" d="M 41.25 38.828125 C 41.25 39.316406 40.851562 39.71875 40.359375 39.71875 C 39.875 39.71875 39.472656 39.316406 39.472656 38.828125 C 39.472656 38.339844 39.875 37.9375 40.359375 37.9375 C 40.851562 37.9375 41.25 38.339844 41.25 38.828125 Z M 41.25 38.828125 " /><path style=" stroke:none;fill-rule:nonzero;fill:rgb(0%,41.176471%,19.215686%);fill-opacity:1;" d="M 44.609375 40.625 C 44.609375 40.9375 44.355469 41.191406 44.042969 41.191406 C 43.71875 41.191406 43.46875 40.9375 43.46875 40.625 C 43.46875 40.304688 43.71875 40.046875 44.042969 40.046875 C 44.355469 40.046875 44.609375 40.304688 44.609375 40.625 Z M 44.609375 40.625 " /><path style=" stroke:none;fill-rule:nonzero;fill:rgb(0%,41.176471%,19.215686%);fill-opacity:1;" d="M 45.828125 45.195312 C 45.828125 45.734375 45.390625 46.179688 44.84375 46.179688 C 44.304688 46.179688 43.867188 45.734375 43.867188 45.195312 C 43.867188 44.648438 44.304688 44.210938 44.84375 44.210938 C 45.390625 44.210938 45.828125 44.648438 45.828125 45.195312 Z M 45.828125 45.195312 " /><path style=" stroke:none;fill-rule:nonzero;fill:rgb(0%,51.372549%,24.313725%);fill-opacity:1;" d="M 14.453125 34.21875 C 16.054688 35.820312 16.054688 38.417969 14.453125 40.019531 L 4.8125 49.65625 C 1.960938 46.796875 1.960938 42.167969 4.8125 39.316406 L 12.1875 31.953125 Z M 14.453125 34.21875 " /><path style=" stroke:none;fill-rule:nonzero;fill:rgb(0%,41.176471%,19.215686%);fill-opacity:1;" d="M 3.984375 48.652344 L 13.535156 39.101562 C 14.628906 38.007812 14.628906 36.230469 13.535156 35.136719 L 11.257812 32.871094 L 12.1875 31.953125 L 14.453125 34.21875 C 16.054688 35.820312 16.054688 38.417969 14.453125 40.019531 L 4.8125 49.65625 C 4.5 49.335938 4.226562 49.003906 3.984375 48.652344 Z M 3.984375 48.652344 " /><path style=" stroke:none;fill-rule:nonzero;fill:rgb(0%,41.176471%,19.215686%);fill-opacity:1;" d="M 10.527344 38.828125 C 10.527344 39.316406 10.125 39.71875 9.640625 39.71875 C 9.148438 39.71875 8.75 39.316406 8.75 38.828125 C 8.75 38.339844 9.148438 37.9375 9.640625 37.9375 C 10.125 37.9375 10.527344 38.339844 10.527344 38.828125 Z M 10.527344 38.828125 " /><path style=" stroke:none;fill-rule:nonzero;fill:rgb(0%,41.176471%,19.215686%);fill-opacity:1;" d="M 6.53125 40.625 C 6.53125 40.9375 6.28125 41.191406 5.957031 41.191406 C 5.644531 41.191406 5.390625 40.9375 5.390625 40.625 C 5.390625 40.304688 5.644531 40.046875 5.957031 40.046875 C 6.28125 40.046875 6.53125 40.304688 6.53125 40.625 Z M 6.53125 40.625 " /><path style=" stroke:none;fill-rule:nonzero;fill:rgb(0%,41.176471%,19.215686%);fill-opacity:1;" d="M 6.132812 45.195312 C 6.132812 45.734375 5.695312 46.179688 5.15625 46.179688 C 4.609375 46.179688 4.171875 45.734375 4.171875 45.195312 C 4.171875 44.648438 4.609375 44.210938 5.15625 44.210938 C 5.695312 44.210938 6.132812 44.648438 6.132812 45.195312 Z M 6.132812 45.195312 " /><path style=" stroke:none;fill-rule:nonzero;fill:rgb(0%,51.372549%,24.313725%);fill-opacity:1;" d="M 34.5625 19.1875 C 36.164062 20.789062 38.769531 20.789062 40.371094 19.1875 L 50 9.5625 C 47.148438 6.699219 42.519531 6.699219 39.65625 9.5625 L 32.296875 16.921875 Z M 34.5625 19.1875 " /><path style=" stroke:none;fill-rule:nonzero;fill:rgb(0%,41.176471%,19.215686%);fill-opacity:1;" d="M 48.992188 8.71875 L 39.453125 18.273438 C 38.351562 19.367188 36.582031 19.367188 35.476562 18.273438 L 33.210938 16.007812 L 32.296875 16.921875 L 34.5625 19.1875 C 36.164062 20.789062 38.769531 20.789062 40.371094 19.1875 L 50 9.5625 C 49.6875 9.238281 49.34375 8.964844 48.992188 8.71875 Z M 48.992188 8.71875 " /><path style=" stroke:none;fill-rule:nonzero;fill:rgb(0%,41.176471%,19.215686%);fill-opacity:1;" d="M 40.058594 14.375 C 40.058594 14.863281 39.667969 15.265625 39.171875 15.265625 C 38.679688 15.265625 38.289062 14.863281 38.289062 14.375 C 38.289062 13.886719 38.679688 13.484375 39.171875 13.484375 C 39.667969 13.484375 40.058594 13.886719 40.058594 14.375 Z M 40.058594 14.375 " /><path style=" stroke:none;fill-rule:nonzero;fill:rgb(0%,41.176471%,19.215686%);fill-opacity:1;" d="M 41.542969 10.703125 C 41.542969 11.015625 41.28125 11.269531 40.96875 11.269531 C 40.65625 11.269531 40.398438 11.015625 40.398438 10.703125 C 40.398438 10.382812 40.65625 10.125 40.96875 10.125 C 41.28125 10.125 41.542969 10.382812 41.542969 10.703125 Z M 41.542969 10.703125 " /><path style=" stroke:none;fill-rule:nonzero;fill:rgb(0%,41.176471%,19.215686%);fill-opacity:1;" d="M 46.523438 9.890625 C 46.523438 10.4375 46.085938 10.878906 45.539062 10.878906 C 45 10.878906 44.5625 10.4375 44.5625 9.890625 C 44.5625 9.34375 45 8.90625 45.539062 8.90625 C 46.085938 8.90625 46.523438 9.34375 46.523438 9.890625 Z M 46.523438 9.890625 " /><path style=" stroke:none;fill-rule:nonzero;fill:rgb(0%,41.176471%,19.215686%);fill-opacity:1;" d="M 27.441406 43.417969 C 27.804688 42.492188 27.285156 41.726562 26.289062 41.726562 L 23.710938 41.726562 C 22.714844 41.726562 22.195312 42.492188 22.558594 43.417969 L 24.335938 47.976562 C 24.707031 48.90625 25.292969 48.90625 25.664062 47.976562 Z M 27.441406 43.417969 " /><path style=" stroke:none;fill-rule:nonzero;fill:rgb(0%,51.372549%,24.313725%);fill-opacity:1;" d="M 25 0.34375 C 21.945312 0.34375 19.460938 2.820312 19.460938 5.890625 L 19.460938 15.226562 L 30.539062 15.226562 L 30.539062 5.890625 C 30.539062 2.820312 28.054688 0.34375 25 0.34375 Z M 25 0.34375 " /><path style=" stroke:none;fill-rule:nonzero;fill:rgb(20%,24.313725%,28.235294%);fill-opacity:1;" d="M 21.542969 5.742188 C 21.542969 6.101562 21.25 6.398438 20.878906 6.398438 C 20.515625 6.398438 20.226562 6.101562 20.226562 5.742188 C 20.226562 5.371094 20.515625 5.078125 20.878906 5.078125 C 21.25 5.078125 21.542969 5.371094 21.542969 5.742188 Z M 21.542969 5.742188 " /><path style=" stroke:none;fill-rule:nonzero;fill:rgb(20%,24.313725%,28.235294%);fill-opacity:1;" d="M 29.773438 5.742188 C 29.773438 6.101562 29.484375 6.398438 29.121094 6.398438 C 28.75 6.398438 28.457031 6.101562 28.457031 5.742188 C 28.457031 5.371094 28.75 5.078125 29.121094 5.078125 C 29.484375 5.078125 29.773438 5.371094 29.773438 5.742188 Z M 29.773438 5.742188 " /><path style=" stroke:none;fill-rule:nonzero;fill:rgb(41.960784%,70.980392%,52.941176%);fill-opacity:1;" d="M 25 44.875 C 16.738281 44.875 10.019531 38.15625 10.019531 29.890625 L 10.019531 24.8125 C 10.019531 16.554688 16.738281 9.835938 25 9.835938 C 33.261719 9.835938 39.980469 16.554688 39.980469 24.8125 L 39.980469 29.890625 C 39.980469 38.15625 33.261719 44.875 25 44.875 Z M 25 44.875 " /><path style=" stroke:none;fill-rule:nonzero;fill:rgb(0%,51.372549%,24.313725%);fill-opacity:1;" d="M 25 11.882812 C 17.859375 11.882812 12.070312 17.675781 12.070312 24.8125 L 12.070312 29.890625 C 12.070312 37.03125 17.859375 42.820312 25 42.820312 C 32.140625 42.820312 37.929688 37.03125 37.929688 29.890625 L 37.929688 24.8125 C 37.929688 17.675781 32.140625 11.882812 25 11.882812 Z M 25 11.882812 " /><path style=" stroke:none;fill-rule:nonzero;fill:rgb(0%,41.176471%,19.215686%);fill-opacity:1;" d="M 37.929688 26.632812 L 26.25 26.632812 L 33.105469 14.746094 C 32.734375 14.445312 32.34375 14.160156 31.933594 13.90625 L 25 25.917969 L 18.066406 13.90625 C 17.65625 14.160156 17.265625 14.445312 16.894531 14.746094 L 23.75 26.632812 L 12.070312 26.632812 L 12.070312 28.078125 L 23.75 28.078125 L 16.894531 39.960938 C 17.265625 40.265625 17.65625 40.546875 18.066406 40.800781 L 25 28.789062 L 31.933594 40.800781 C 32.34375 40.546875 32.734375 40.265625 33.105469 39.960938 L 26.25 28.078125 L 37.929688 28.078125 Z M 37.929688 26.632812 " /><path style=" stroke:none;fill-rule:nonzero;fill:rgb(0%,41.176471%,19.215686%);fill-opacity:1;" d="M 21.867188 32.78125 L 18.730469 27.351562 L 21.867188 21.921875 L 28.132812 21.921875 L 31.269531 27.351562 L 28.132812 32.78125 Z M 21.867188 32.78125 " /></g></g></g></svg>